<svg width="218" height="42" viewBox="0 0 218 42" fill="none" xmlns="http://www.w3.org/2000/svg">
<g clip-path="url(#clip0_2002_56)">
<path d="M99.888 1.0625V19.3054H96.3677V10.0712L90.6142 16.9288L84.8891 10.0712V19.3054H81.3594V1.0625H81.5865L90.6142 11.593L99.6609 1.0625H99.888Z" fill="#086CB6"/>
<path d="M113.032 19.6474C111.764 19.6568 110.506 19.4032 109.342 18.8959C107.061 17.9284 105.244 16.1247 104.26 13.8608C103.257 11.503 103.257 8.8445 104.26 6.49603C105.235 4.22271 107.052 2.40969 109.342 1.44213C111.708 0.446375 114.386 0.446375 116.751 1.44213C119.041 2.40969 120.858 4.22271 121.833 6.49603C122.836 8.85389 122.836 11.5124 121.833 13.8608C120.858 16.1247 119.041 17.9284 116.751 18.8959C115.578 19.4032 114.31 19.6568 113.032 19.6474ZM113.042 3.95029C112.228 3.9409 111.433 4.11938 110.695 4.45756C109.985 4.78634 109.332 5.24664 108.793 5.81967C108.244 6.3927 107.809 7.06906 107.506 7.80178C106.872 9.31419 106.872 11.0145 107.506 12.5269C107.809 13.2596 108.254 13.936 108.793 14.509C109.332 15.082 109.985 15.5517 110.695 15.8805C112.181 16.5663 113.903 16.5663 115.389 15.8805C116.108 15.5517 116.751 15.082 117.291 14.509C117.84 13.9266 118.275 13.2596 118.587 12.5269C119.221 11.0145 119.221 9.31419 118.587 7.80178C118.284 7.06906 117.849 6.3927 117.291 5.81967C116.742 5.25604 116.098 4.79574 115.389 4.45756C114.66 4.11938 113.856 3.95029 113.042 3.95029Z" fill="#086CB6"/>
<path d="M138.098 4.13746H132.846V19.3086H129.326V4.13746H124.055V1.04688H138.098V4.13746Z" fill="#086CB6"/>
<path d="M164.626 1.0625L157.766 19.3054H157.416L152.438 8.67154L147.413 19.3242H147.082L140.297 1.0625H144.044L147.631 11.067L152.315 1.0625H152.533L157.217 11.0952L160.879 1.0625H164.626Z" fill="#086CB6"/>
<path d="M162.586 19.3038L171.983 1.07031H172.333L181.73 19.3038H177.907L176.478 16.4387H167.81L166.4 19.3038H162.586ZM169.522 13.3857H174.774L172.163 7.87148L169.522 13.3857Z" fill="#086CB6"/>
<path d="M217.879 1.04688H204.328V4.13746H217.879V1.04688Z" fill="#086CB6"/>
<path d="M217.879 8.61719H204.328V11.7078H217.879V8.61719Z" fill="#0F88C9"/>
<path d="M217.879 16.2109H204.328V19.3015H217.879V16.2109Z" fill="#56B0E3"/>
<path d="M199.626 19.3224L187.589 8.51946V19.3224H184.078V1.16406H184.457L196.494 12.1455V1.16406H199.995V19.3224H199.626Z" fill="#086CB6"/>
<path d="M217.996 38.2665V40.9907H204.379V24.8896H207.994V38.2665H217.996ZM184.79 35.7771H190.194L187.506 30.9111L184.79 35.7771ZM177.655 40.9907L187.317 24.9084H187.677L197.338 40.9907H193.411L191.935 38.4638H183.021L181.573 40.9907H177.655ZM174.627 27.6138H169.224V40.9907H165.609V27.6138H160.186V24.8896H174.627V27.6138ZM152.02 40.9907H148.405V24.9084H152.02V40.9907ZM139.434 32.1887C139.415 32.4986 139.406 32.7805 139.406 33.0435C139.387 33.2783 139.377 33.5132 139.377 33.7386C139.377 33.9641 139.368 34.1426 139.349 34.2553C139.245 35.2698 138.923 36.2092 138.384 37.0735C137.844 37.9377 137.144 38.6798 136.292 39.3092C135.441 39.9292 134.456 40.4177 133.349 40.7746C132.242 41.1222 131.069 41.3007 129.848 41.3007C128.504 41.3007 127.236 41.0846 126.053 40.6431C124.861 40.2016 123.82 39.6098 122.931 38.8489C122.041 38.0974 121.331 37.2144 120.811 36.1998C120.29 35.1853 120.035 34.1144 120.035 32.9683C120.035 31.8223 120.29 30.742 120.811 29.7275C121.331 28.7035 122.041 27.8205 122.931 27.069C123.82 26.3175 124.861 25.7163 126.053 25.2748C127.246 24.8332 128.504 24.6172 129.848 24.6172C131.551 24.6172 133.113 24.9554 134.542 25.6317C135.961 26.3081 137.116 27.2099 137.996 28.3372L134.892 29.9435C134.343 29.2578 133.624 28.6753 132.734 28.2056C131.845 27.736 130.889 27.5011 129.857 27.5011C128.996 27.5011 128.192 27.6514 127.444 27.952C126.697 28.2526 126.044 28.6566 125.476 29.1544C124.918 29.6523 124.473 30.2347 124.142 30.9017C123.811 31.5687 123.65 32.2638 123.65 32.9777C123.65 33.7105 123.811 34.4056 124.142 35.0632C124.473 35.7207 124.908 36.3032 125.476 36.801C126.034 37.2989 126.687 37.7029 127.444 38.0035C128.192 38.3041 128.996 38.4544 129.857 38.4544C130.51 38.4544 131.144 38.3698 131.741 38.2007C132.346 38.0316 132.895 37.7968 133.397 37.4868C133.898 37.1768 134.333 36.8104 134.703 36.3877C135.072 35.965 135.346 35.4953 135.516 34.9786H128.542V32.2074H139.434V32.1887ZM110.979 40.9907H107.364V24.9084H110.979V40.9907ZM84.9837 38.2665H88.8352C89.507 38.2665 90.1884 38.2007 90.8792 38.0692C91.57 37.9377 92.1945 37.6747 92.7529 37.2895C93.3112 36.9044 93.7749 36.3595 94.1345 35.6738C94.4941 34.988 94.6739 34.0862 94.6739 32.9683C94.6739 31.8505 94.4941 30.9487 94.1345 30.2535C93.7749 29.5584 93.3112 29.0135 92.7434 28.6378C92.1756 28.2526 91.5416 27.999 90.8603 27.8675C90.1695 27.736 89.4976 27.6702 88.8446 27.6702H84.9932V38.2665H84.9837ZM88.8162 40.9907H81.3594V24.8896H88.8162C91.5132 24.8896 93.737 25.566 95.4782 26.9093C96.4056 27.6232 97.1059 28.4969 97.579 29.5114C98.0522 30.5353 98.2887 31.672 98.2887 32.9308C98.2887 34.2083 98.0522 35.3544 97.579 36.3689C97.1059 37.3929 96.4056 38.2571 95.4782 38.971C94.636 39.6286 93.6519 40.1265 92.5258 40.4647C91.3902 40.8216 90.16 40.9907 88.8162 40.9907Z" fill="#086CB6"/>
<path d="M21.2351 0H0V42H21.2351V0Z" fill="#0D6CB3"/>
<path d="M46.3679 0H25.1328V42H46.3679V0Z" fill="#1387C9"/>
<path d="M62.3594 0H50.2656V42H71.5007V9.08387C71.4912 4.07694 67.4032 0.0187877 62.3594 0Z" fill="#55AFE2"/>
</g>
<defs>
<clipPath id="clip0_2002_56">
<rect width="218" height="42" fill="white"/>
</clipPath>
</defs>
</svg>
